<svg xmlns="http://www.w3.org/2000/svg">
	<g transform="translate(10 10)
              scale(2.5 2.5)">
   <style>
    .small {
      font: 6px sans-serif;
    }
	<style>
      .arc-black-arrow { stroke:#000000 }
      .arc-blue-arrow { stroke:#0074D9 }
      .arc-red-arrow { stroke:#FF4136 }
      .arc-green-arrow { stroke:#2ECC40 }
      .arc-yellow-arrow { stroke:#FFDC00 }
      .arc-grey-arrow { stroke:#AAAAAA }
      .arc-fuschia-arrow { stroke:#F012BE }
      .arc-orange-arrow { stroke:#FF851B }
      .arc-teal-arrow { stroke:#7FDBFF }
      .arc-brown-arrow { stroke:#870C25 }
    </style>
  </style>
<!--
    Color(0x00, 0x00, 0x00), /* black */
    Color(0x00, 0x74, 0xD9), /* blue */
    Color(0xFF, 0x41, 0x36), /* red */
    Color(0x2E, 0xCC, 0x40), /* green */
    Color(0xFF, 0xDC, 0x00), /* yellow */
    Color(0xAA, 0xAA, 0xAA), /* grey */
    Color(0xF0, 0x12, 0xBE), /* fuschia */
    Color(0xFF, 0x85, 0x1B), /* orange */
    Color(0x7F, 0xDB, 0xFF), /* teal */
    Color(0x87, 0x0C, 0x25), /* brown */
-->
      <marker
      id="arrow"
      viewBox="0 0 10 10"
      refX="5"
      refY="5"
      markerWidth="6"
      markerHeight="6"
      orient="auto-start-reverse">
      <path fill="context-stroke" d="M 0 0 L 10 5 L 0 10 z" />
    </marker>
		<line x1="20" y1="20" x2="50" y2="20" class="arc-teal-arrow" marker-end="url(#arrow)"/>
		<!-- points -->
		<ellipse cx="10" cy="30" rx="3" ry="3" fill="black" stroke="white"/>
		<ellipse cx="10" cy="150" rx="3" ry="3" fill="black" stroke="white"/>
		<ellipse cx="10" cy="270" rx="3" ry="3" fill="black" stroke="white"/>
		<ellipse cx="10" cy="390" rx="3" ry="3" fill="black" stroke="white"/>
		<ellipse cx="130" cy="30" rx="3" ry="3" fill="black" stroke="white"/>
		<ellipse cx="130" cy="150" rx="3" ry="3" fill="black" stroke="white"/>
		<ellipse cx="130" cy="270" rx="3" ry="3" fill="black" stroke="white"/>
		<ellipse cx="130" cy="390" rx="3" ry="3" fill="black" stroke="white"/>
		<ellipse cx="250" cy="30" rx="3" ry="3" fill="black" stroke="white"/>
		<ellipse cx="250" cy="150" rx="3" ry="3" fill="black" stroke="white"/>
		<ellipse cx="250" cy="270" rx="3" ry="3" fill="black" stroke="white"/>
		<ellipse cx="250" cy="390" rx="3" ry="3" fill="black" stroke="white"/>
		<ellipse cx="370" cy="30" rx="3" ry="3" fill="black" stroke="white"/>
		<ellipse cx="370" cy="150" rx="3" ry="3" fill="black" stroke="white"/>
		<ellipse cx="370" cy="270" rx="3" ry="3" fill="black" stroke="white"/>
		<ellipse cx="370" cy="390" rx="3" ry="3" fill="black" stroke="white"/>
		<!-- ColorPixelRects -->
		<rect x="50" y="70" width="40" height="40" fill="#dae8fc" stroke="#6c8ebf"/>
		<rect x="170" y="70" width="40" height="40" fill="#dae8fc" stroke="#6c8ebf"/>
		<rect x="290" y="70" width="40" height="40" fill="#dae8fc" stroke="#6c8ebf"/>
		<rect x="50" y="190" width="40" height="40" fill="#dae8fc" stroke="#6c8ebf"/>
		<rect x="170" y="190" width="40" height="40" fill="#dae8fc" stroke="#6c8ebf"/>
		<rect x="290" y="190" width="40" height="40" fill="#dae8fc" stroke="#6c8ebf"/>
		<rect x="50" y="310" width="40" height="40" fill="#dae8fc" stroke="#6c8ebf"/>
		<rect x="170" y="310" width="40" height="40" fill="#dae8fc" stroke="#6c8ebf"/>
		<rect x="290" y="310" width="40" height="40" fill="#dae8fc" stroke="#6c8ebf"/>
		<!-- edgeJointRects -->
		<rect x="0" y="0" width="20" height="20" fill="#ffe6cc" stroke="#d79b00"/>
		<rect x="120" y="0" width="20" height="20" fill="#ffe6cc" stroke="#d79b00"/>
		<rect x="240" y="0" width="20" height="20" fill="#ffe6cc" stroke="#d79b00"/>
		<rect x="360" y="0" width="20" height="20" fill="#ffe6cc" stroke="#d79b00"/>
		<rect x="0" y="120" width="20" height="20" fill="#ffe6cc" stroke="#d79b00"/>
		<rect x="120" y="120" width="20" height="20" fill="#ffe6cc" stroke="#d79b00"/>
		<rect x="240" y="120" width="20" height="20" fill="#ffe6cc" stroke="#d79b00"/>
		<rect x="360" y="120" width="20" height="20" fill="#ffe6cc" stroke="#d79b00"/>
		<rect x="0" y="240" width="20" height="20" fill="#ffe6cc" stroke="#d79b00"/>
		<rect x="120" y="240" width="20" height="20" fill="#ffe6cc" stroke="#d79b00"/>
		<rect x="240" y="240" width="20" height="20" fill="#ffe6cc" stroke="#d79b00"/>
		<rect x="360" y="240" width="20" height="20" fill="#ffe6cc" stroke="#d79b00"/>
		<rect x="0" y="360" width="20" height="20" fill="#ffe6cc" stroke="#d79b00"/>
		<rect x="120" y="360" width="20" height="20" fill="#ffe6cc" stroke="#d79b00"/>
		<rect x="240" y="360" width="20" height="20" fill="#ffe6cc" stroke="#d79b00"/>
		<rect x="360" y="360" width="20" height="20" fill="#ffe6cc" stroke="#d79b00"/>

		<!-- pixelArrows -->
		<path d="M 10 30 L 45.5 66.07" fill="none" stroke="#314354" stroke-miterlimit="10" stroke-dasharray="3 3" pointer-events="stroke"/>
		<path d="M 49.21 69.78 L 41.78 67.3 L 45.5 66.07 L 46.73 62.35 Z" fill="#314354" stroke="#314354" stroke-miterlimit="10"/>
		<path d="M 130 30.57 L 165.5 66.07" fill="none" stroke="#314354" stroke-miterlimit="10" stroke-dasharray="3 3" pointer-events="stroke"/>
		<path d="M 169.21 69.78 L 161.78 67.3 L 165.5 66.07 L 166.73 62.35 Z" fill="#314354" stroke="#314354" stroke-miterlimit="10"/>
		<path d="M 250 30.57 L 285.5 66.07" fill="none" stroke="#314354" stroke-miterlimit="10" stroke-dasharray="3 3" pointer-events="stroke"/>
		<path d="M 289.21 69.78 L 281.78 67.3 L 285.5 66.07 L 286.73 62.35 Z" fill="#314354" stroke="#314354" stroke-miterlimit="10"/>
		<path d="M 370 30.57 L 334.5 66.07" fill="none" stroke="#314354" stroke-miterlimit="10" stroke-dasharray="3 3" pointer-events="stroke"/>
		<path d="M 330.79 69.78 L 333.27 62.35 L 334.5 66.07 L 338.22 67.3 Z" fill="#314354" stroke="#314354" stroke-miterlimit="10"/>
		<path d="M 250 30.57 L 214.5 66.07" fill="none" stroke="#314354" stroke-miterlimit="10" stroke-dasharray="3 3" pointer-events="stroke"/>
		<path d="M 210.79 69.78 L 213.27 62.35 L 214.5 66.07 L 218.22 67.3 Z" fill="#314354" stroke="#314354" stroke-miterlimit="10"/>
		<path d="M 130 30.57 L 94.5 66.07" fill="none" stroke="#314354" stroke-miterlimit="10" stroke-dasharray="3 3" pointer-events="stroke"/>
		<path d="M 90.79 69.78 L 93.27 62.35 L 94.5 66.07 L 98.22 67.3 Z" fill="#314354" stroke="#314354" stroke-miterlimit="10"/>
		<path d="M 10 150.57 L 45.5 186.07" fill="none" stroke="#314354" stroke-miterlimit="10" stroke-dasharray="3 3" pointer-events="stroke"/>
		<path d="M 49.21 189.78 L 41.78 187.3 L 45.5 186.07 L 46.73 182.35 Z" fill="#314354" stroke="#314354" stroke-miterlimit="10"/>
		<path d="M 130 150.57 L 165.5 186.07" fill="none" stroke="#314354" stroke-miterlimit="10" stroke-dasharray="3 3" pointer-events="stroke"/>
		<path d="M 169.21 189.78 L 161.78 187.3 L 165.5 186.07 L 166.73 182.35 Z" fill="#314354" stroke="#314354" stroke-miterlimit="10"/>
		<path d="M 250 150.57 L 285.5 186.07" fill="none" stroke="#314354" stroke-miterlimit="10" stroke-dasharray="3 3" pointer-events="stroke"/>
		<path d="M 289.21 189.78 L 281.78 187.3 L 285.5 186.07 L 286.73 182.35 Z" fill="#314354" stroke="#314354" stroke-miterlimit="10"/>
		<path d="M 370 150.57 L 334.5 186.07" fill="none" stroke="#314354" stroke-miterlimit="10" stroke-dasharray="3 3" pointer-events="stroke"/>
		<path d="M 330.79 189.78 L 333.27 182.35 L 334.5 186.07 L 338.22 187.3 Z" fill="#314354" stroke="#314354" stroke-miterlimit="10"/>
		<path d="M 250 150.57 L 214.5 186.07" fill="none" stroke="#314354" stroke-miterlimit="10" stroke-dasharray="3 3" pointer-events="stroke"/>
		<path d="M 210.79 189.78 L 213.27 182.35 L 214.5 186.07 L 218.22 187.3 Z" fill="#314354" stroke="#314354" stroke-miterlimit="10"/>
		<path d="M 130 150.57 L 94.5 186.07" fill="none" stroke="#314354" stroke-miterlimit="10" stroke-dasharray="3 3" pointer-events="stroke"/>
		<path d="M 90.79 189.78 L 93.27 182.35 L 94.5 186.07 L 98.22 187.3 Z" fill="#314354" stroke="#314354" stroke-miterlimit="10"/>
		<path d="M 10 270.57 L 45.5 306.07" fill="none" stroke="#314354" stroke-miterlimit="10" stroke-dasharray="3 3" pointer-events="stroke"/>
		<path d="M 49.21 309.78 L 41.78 307.3 L 45.5 306.07 L 46.73 302.35 Z" fill="#314354" stroke="#314354" stroke-miterlimit="10"/>
		<path d="M 130 270.57 L 165.5 306.07" fill="none" stroke="#314354" stroke-miterlimit="10" stroke-dasharray="3 3" pointer-events="stroke"/>
		<path d="M 169.21 309.78 L 161.78 307.3 L 165.5 306.07 L 166.73 302.35 Z" fill="#314354" stroke="#314354" stroke-miterlimit="10"/>
		<path d="M 250 270.57 L 285.5 306.07" fill="none" stroke="#314354" stroke-miterlimit="10" stroke-dasharray="3 3" pointer-events="stroke"/>
		<path d="M 289.21 309.78 L 281.78 307.3 L 285.5 306.07 L 286.73 302.35 Z" fill="#314354" stroke="#314354" stroke-miterlimit="10"/>
		<path d="M 370 270.57 L 334.5 306.07" fill="none" stroke="#314354" stroke-miterlimit="10" stroke-dasharray="3 3" pointer-events="stroke"/>
		<path d="M 330.79 309.78 L 333.27 302.35 L 334.5 306.07 L 338.22 307.3 Z" fill="#314354" stroke="#314354" stroke-miterlimit="10"/>
		<path d="M 250 270.57 L 214.5 306.07" fill="none" stroke="#314354" stroke-miterlimit="10" stroke-dasharray="3 3" pointer-events="stroke"/>
		<path d="M 210.79 309.78 L 213.27 302.35 L 214.5 306.07 L 218.22 307.3 Z" fill="#314354" stroke="#314354" stroke-miterlimit="10"/>
		<path d="M 130 270.57 L 94.5 306.07" fill="none" stroke="#314354" stroke-miterlimit="10" stroke-dasharray="3 3" pointer-events="stroke"/>
		<path d="M 90.79 309.78 L 93.27 302.35 L 94.5 306.07 L 98.22 307.3 Z" fill="#314354" stroke="#314354" stroke-miterlimit="10"/>
		<path d="M 10 150.57 L 45.5 115.07" fill="none" stroke="#314354" stroke-miterlimit="10" stroke-dasharray="3 3" pointer-events="stroke"/>
		<path d="M 49.21 111.36 L 46.73 118.79 L 45.5 115.07 L 41.78 113.84 Z" fill="#314354" stroke="#314354" stroke-miterlimit="10"/>
		<path d="M 130 150.57 L 165.5 115.07" fill="none" stroke="#314354" stroke-miterlimit="10" stroke-dasharray="3 3" pointer-events="stroke"/>
		<path d="M 169.21 111.36 L 166.73 118.79 L 165.5 115.07 L 161.78 113.84 Z" fill="#314354" stroke="#314354" stroke-miterlimit="10"/>
		<path d="M 250 150.57 L 285.5 115.07" fill="none" stroke="#314354" stroke-miterlimit="10" stroke-dasharray="3 3" pointer-events="stroke"/>
		<path d="M 289.21 111.36 L 286.73 118.79 L 285.5 115.07 L 281.78 113.84 Z" fill="#314354" stroke="#314354" stroke-miterlimit="10"/>
		<path d="M 250 150.57 L 214.5 115.07" fill="none" stroke="#314354" stroke-miterlimit="10" stroke-dasharray="3 3" pointer-events="stroke"/>
		<path d="M 210.79 111.36 L 218.22 113.84 L 214.5 115.07 L 213.27 118.79 Z" fill="#314354" stroke="#314354" stroke-miterlimit="10"/>
		<path d="M 10 270.57 L 45.5 235.07" fill="none" stroke="#314354" stroke-miterlimit="10" stroke-dasharray="3 3" pointer-events="stroke"/>
		<path d="M 49.21 231.36 L 46.73 238.79 L 45.5 235.07 L 41.78 233.84 Z" fill="#314354" stroke="#314354" stroke-miterlimit="10"/>
		<path d="M 130 270.57 L 165.5 235.07" fill="none" stroke="#314354" stroke-miterlimit="10" stroke-dasharray="3 3" pointer-events="stroke"/>
		<path d="M 169.21 231.36 L 166.73 238.79 L 165.5 235.07 L 161.78 233.84 Z" fill="#314354" stroke="#314354" stroke-miterlimit="10"/>
		<path d="M 250 270.57 L 285.5 235.07" fill="none" stroke="#314354" stroke-miterlimit="10" stroke-dasharray="3 3" pointer-events="stroke"/>
		<path d="M 289.21 231.36 L 286.73 238.79 L 285.5 235.07 L 281.78 233.84 Z" fill="#314354" stroke="#314354" stroke-miterlimit="10"/>
		<path d="M 10 390.57 L 45.5 355.07" fill="none" stroke="#314354" stroke-miterlimit="10" stroke-dasharray="3 3" pointer-events="stroke"/>
		<path d="M 49.21 351.36 L 46.73 358.79 L 45.5 355.07 L 41.78 353.84 Z" fill="#314354" stroke="#314354" stroke-miterlimit="10"/>
		<path d="M 130 390.57 L 165.5 355.07" fill="none" stroke="#314354" stroke-miterlimit="10" stroke-dasharray="3 3" pointer-events="stroke"/>
		<path d="M 169.21 351.36 L 166.73 358.79 L 165.5 355.07 L 161.78 353.84 Z" fill="#314354" stroke="#314354" stroke-miterlimit="10"/>
		<path d="M 250 390.57 L 285.5 355.07" fill="none" stroke="#314354" stroke-miterlimit="10" stroke-dasharray="3 3" pointer-events="stroke"/>
		<path d="M 289.21 351.36 L 286.73 358.79 L 285.5 355.07 L 281.78 353.84 Z" fill="#314354" stroke="#314354" stroke-miterlimit="10"/>
		<path d="M 130 150.57 L 94.5 115.07" fill="none" stroke="#314354" stroke-miterlimit="10" stroke-dasharray="3 3" pointer-events="stroke"/>
		<path d="M 90.79 111.36 L 98.22 113.84 L 94.5 115.07 L 93.27 118.79 Z" fill="#314354" stroke="#314354" stroke-miterlimit="10"/>
		<path d="M 370 150.57 L 334.5 115.07" fill="none" stroke="#314354" stroke-miterlimit="10" stroke-dasharray="3 3" pointer-events="stroke"/>
		<path d="M 330.79 111.36 L 338.22 113.84 L 334.5 115.07 L 333.27 118.79 Z" fill="#314354" stroke="#314354" stroke-miterlimit="10"/>
		<path d="M 370 270.57 L 334.5 235.07" fill="none" stroke="#314354" stroke-miterlimit="10" stroke-dasharray="3 3" pointer-events="stroke"/>
		<path d="M 330.79 231.36 L 338.22 233.84 L 334.5 235.07 L 333.27 238.79 Z" fill="#314354" stroke="#314354" stroke-miterlimit="10"/>
		<path d="M 250 270.57 L 214.5 235.07" fill="none" stroke="#314354" stroke-miterlimit="10" stroke-dasharray="3 3" pointer-events="stroke"/>
		<path d="M 210.79 231.36 L 218.22 233.84 L 214.5 235.07 L 213.27 238.79 Z" fill="#314354" stroke="#314354" stroke-miterlimit="10"/>
		<path d="M 130 270.57 L 94.5 235.07" fill="none" stroke="#314354" stroke-miterlimit="10" stroke-dasharray="3 3" pointer-events="stroke"/>
		<path d="M 90.79 231.36 L 98.22 233.84 L 94.5 235.07 L 93.27 238.79 Z" fill="#314354" stroke="#314354" stroke-miterlimit="10"/>
		<path d="M 130 390.57 L 94.5 355.07" fill="none" stroke="#314354" stroke-miterlimit="10" stroke-dasharray="3 3" pointer-events="stroke"/>
		<path d="M 90.79 351.36 L 98.22 353.84 L 94.5 355.07 L 93.27 358.79 Z" fill="#314354" stroke="#314354" stroke-miterlimit="10"/>
		<path d="M 250 390.57 L 214.5 355.07" fill="none" stroke="#314354" stroke-miterlimit="10" stroke-dasharray="3 3" pointer-events="stroke"/>
		<path d="M 210.79 351.36 L 218.22 353.84 L 214.5 355.07 L 213.27 358.79 Z" fill="#314354" stroke="#314354" stroke-miterlimit="10"/>
		<path d="M 370 390.57 L 334.5 355.07" fill="none" stroke="#314354" stroke-miterlimit="10" stroke-dasharray="3 3" pointer-events="stroke"/>
		<path d="M 330.79 351.36 L 338.22 353.84 L 334.5 355.07 L 333.27 358.79 Z" fill="#314354" stroke="#314354" stroke-miterlimit="10"/>

		<!-- edgeArrows -->
		<!-- pixelArrows
		<path d="M 20 20.57 L 120 20" fill="none" stroke="#b85450" stroke-miterlimit="10" pointer-events="stroke"/>
		<path d="M 48.88 20.98 L 41.83 24.38 L 43.63 20.91 L 41.93 17.38 Z" fill="#b85450" stroke="#b85450" stroke-miterlimit="10"/>

		<path d="M 20 20.57 L 20 44.2" fill="none" stroke="#b85450" stroke-miterlimit="10" pointer-events="stroke"/>
		<path d="M 20 49.45 L 16.5 42.45 L 20 44.2 L 23.5 42.45 Z" fill="#b85450" stroke="#b85450" stroke-miterlimit="10"/>
		<path d="M 360 20 L 360 43.63" fill="none" stroke="#9673a6" stroke-miterlimit="10" pointer-events="stroke"/>
		<path d="M 360 48.88 L 356.5 41.88 L 360 43.63 L 363.5 41.88 Z" fill="#9673a6" stroke="#9673a6" stroke-miterlimit="10"/>
		<path d="M 140 20.57 L 163.63 20.57" fill="none" stroke="#d79b00" stroke-miterlimit="10" pointer-events="stroke"/>
		<path d="M 168.88 20.57 L 161.88 24.07 L 163.63 20.57 L 161.88 17.07 Z" fill="#d79b00" stroke="#d79b00" stroke-miterlimit="10"/>
		<path d="M 90 20.57 L 113.63 20.57" fill="none" stroke="#b85450" stroke-miterlimit="10" pointer-events="stroke"/>
		<path d="M 118.88 20.57 L 111.88 24.07 L 113.63 20.57 L 111.88 17.07 Z" fill="#b85450" stroke="#b85450" stroke-miterlimit="10"/>
		<path d="M 330 20.57 L 353.63 20.57" fill="none" stroke="#9673a6" stroke-miterlimit="10" pointer-events="stroke"/>
		<path d="M 358.88 20.57 L 351.88 24.07 L 353.63 20.57 L 351.88 17.07 Z" fill="#9673a6" stroke="#9673a6" stroke-miterlimit="10"/>
		<path d="M 120 20.57 L 120 44.2" fill="none" stroke="#b85450" stroke-miterlimit="10" pointer-events="stroke"/>
		<path d="M 120 49.45 L 116.5 42.45 L 120 44.2 L 123.5 42.45 Z" fill="#b85450" stroke="#b85450" stroke-miterlimit="10"/>
		<path d="M 140 20.57 L 140 44.2" fill="none" stroke="#d79b00" stroke-miterlimit="10" pointer-events="stroke"/>
		<path d="M 140 49.45 L 136.5 42.45 L 140 44.2 L 143.5 42.45 Z" fill="#d79b00" stroke="#d79b00" stroke-miterlimit="10"/>
		<path d="M 10 30.57 L 10 20.57" fill="none" stroke="#d79b00" stroke-miterlimit="10" stroke-dasharray="1 1" pointer-events="stroke"/>
		<path d="M 129.9 30 L 129.9 20" fill="none" stroke="#d79b00" stroke-miterlimit="10" stroke-dasharray="1 1" pointer-events="stroke"/>
		<path d="M 369.92 30 L 369.92 20" fill="none" stroke="#d79b00" stroke-miterlimit="10" stroke-dasharray="1 1" pointer-events="stroke"/>
		<path d="M 20 120.09 L 43.63 120.43" fill="none" stroke="#b85450" stroke-miterlimit="10" pointer-events="stroke"/>
		<path d="M 48.88 120.5 L 41.83 123.9 L 43.63 120.43 L 41.93 116.9 Z" fill="#b85450" stroke="#b85450" stroke-miterlimit="10"/>
		<path d="M 9.9 150.57 L 9.9 140.57" fill="none" stroke="#d79b00" stroke-miterlimit="10" stroke-dasharray="1 1" pointer-events="stroke"/>
		<path d="M 20 90.09 L 20 113.72" fill="none" stroke="#b85450" stroke-miterlimit="10" pointer-events="stroke"/>
		<path d="M 20 118.97 L 16.5 111.97 L 20 113.72 L 23.5 111.97 Z" fill="#b85450" stroke="#b85450" stroke-miterlimit="10"/>
		<path d="M 129.9 150.09 L 129.9 140.09" fill="none" stroke="#d79b00" stroke-miterlimit="10" stroke-dasharray="1 1" pointer-events="stroke"/>
		<path d="M 120 90.57 L 120 114.2" fill="none" stroke="#b85450" stroke-miterlimit="10" pointer-events="stroke"/>
		<path d="M 120 119.45 L 116.5 112.45 L 120 114.2 L 123.5 112.45 Z" fill="#b85450" stroke="#b85450" stroke-miterlimit="10"/>
		<path d="M 90 120.57 L 113.63 120.57" fill="none" stroke="#b85450" stroke-miterlimit="10" pointer-events="stroke"/>
		<path d="M 118.88 120.57 L 111.88 124.07 L 113.63 120.57 L 111.88 117.07 Z" fill="#b85450" stroke="#b85450" stroke-miterlimit="10"/>
		<path d="M 20 140.57 L 43.63 140.57" fill="none" stroke="#d79b00" stroke-miterlimit="10" pointer-events="stroke"/>
		<path d="M 48.88 140.57 L 41.88 144.07 L 43.63 140.57 L 41.88 137.07 Z" fill="#d79b00" stroke="#d79b00" stroke-miterlimit="10"/>
		<path d="M 90 140.57 L 113.63 140.57" fill="none" stroke="#d79b00" stroke-miterlimit="10" pointer-events="stroke"/>
		<path d="M 118.88 140.57 L 111.88 144.07 L 113.63 140.57 L 111.88 137.07 Z" fill="#d79b00" stroke="#d79b00" stroke-miterlimit="10"/>
		<path d="M 19.6 140.57 L 19.6 164.2" fill="none" stroke="#d79b00" stroke-miterlimit="10" pointer-events="stroke"/>
		<path d="M 19.6 169.45 L 16.1 162.45 L 19.6 164.2 L 23.1 162.45 Z" fill="#d79b00" stroke="#d79b00" stroke-miterlimit="10"/>
		<path d="M 9.88 390.57 L 9.88 380.57" fill="none" stroke="#d79b00" stroke-miterlimit="10" stroke-dasharray="1 1" pointer-events="stroke"/>
		<path d="M 20 360.57 L 43.63 360.57" fill="none" stroke="#001dbc" stroke-miterlimit="10" pointer-events="stroke"/>
		<path d="M 48.88 360.57 L 41.88 364.07 L 43.63 360.57 L 41.88 357.07 Z" fill="#001dbc" stroke="#001dbc" stroke-miterlimit="10"/>
		<path d="M 19.6 330.57 L 19.92 354.2" fill="none" stroke="#3700cc" stroke-miterlimit="10" pointer-events="stroke"/>
		<path d="M 19.99 359.45 L 16.39 352.5 L 19.92 354.2 L 23.39 352.41 Z" fill="#3700cc" stroke="#3700cc" stroke-miterlimit="10"/>
		<path d="M 139.6 90.57 L 139.92 114.2" fill="none" stroke="#d79b00" stroke-miterlimit="10" pointer-events="stroke"/>
		<path d="M 139.99 119.45 L 136.39 112.5 L 139.92 114.2 L 143.39 112.41 Z" fill="#d79b00" stroke="#d79b00" stroke-miterlimit="10"/>
		<path d="M 330 360.57 L 353.63 360.57" fill="none" stroke="#82b366" stroke-miterlimit="10" pointer-events="stroke"/>
		<path d="M 358.88 360.57 L 351.88 364.07 L 353.63 360.57 L 351.88 357.07 Z" fill="#82b366" stroke="#82b366" stroke-miterlimit="10"/>
		<path d="M 360 330.57 L 360 354.2" fill="none" stroke="#82b366" stroke-miterlimit="10" pointer-events="stroke"/>
		<path d="M 360 359.45 L 356.5 352.45 L 360 354.2 L 363.5 352.45 Z" fill="#82b366" stroke="#82b366" stroke-miterlimit="10"/>
		<path d="M 369.9 390.57 L 369.9 380.57" fill="none" stroke="#d79b00" stroke-miterlimit="10" stroke-dasharray="1 1" pointer-events="stroke"/>
		<path d="M 260 20.57 L 283.63 20.57" fill="none" stroke="#9673a6" stroke-miterlimit="10" pointer-events="stroke"/>
		<path d="M 288.88 20.57 L 281.88 24.07 L 283.63 20.57 L 281.88 17.07 Z" fill="#9673a6" stroke="#9673a6" stroke-miterlimit="10"/>
		<path d="M 249.9 30.57 L 249.9 20.57" fill="none" stroke="#d79b00" stroke-miterlimit="10" stroke-dasharray="1 1" pointer-events="stroke"/>
		<path d="M 210 20.57 L 233.63 20.57" fill="none" stroke="#d79b00" stroke-miterlimit="10" pointer-events="stroke"/>
		<path d="M 238.88 20.57 L 231.88 24.07 L 233.63 20.57 L 231.88 17.07 Z" fill="#d79b00" stroke="#d79b00" stroke-miterlimit="10"/>
		<path d="M 19.6 261.05 L 19.6 284.68" fill="none" stroke="#3700cc" stroke-miterlimit="10" pointer-events="stroke"/>
		<path d="M 19.6 289.93 L 16.1 282.93 L 19.6 284.68 L 23.1 282.93 Z" fill="#3700cc" stroke="#3700cc" stroke-miterlimit="10"/>
		<path d="M 20 210.57 L 20 234.2" fill="none" stroke="#d79b00" stroke-miterlimit="10" pointer-events="stroke"/>
		<path d="M 20 239.45 L 16.5 232.45 L 20 234.2 L 23.5 232.45 Z" fill="#d79b00" stroke="#d79b00" stroke-miterlimit="10"/>
		<path d="M 9.92 270.57 L 9.92 260.57" fill="none" stroke="#d79b00" stroke-miterlimit="10" stroke-dasharray="1 1" pointer-events="stroke"/>
		<path d="M 360 140.57 L 360 164.2" fill="none" stroke="#d79b00" stroke-miterlimit="10" pointer-events="stroke"/>
		<path d="M 360 169.45 L 356.5 162.45 L 360 164.2 L 363.5 162.45 Z" fill="#d79b00" stroke="#d79b00" stroke-miterlimit="10"/>
		<path d="M 369.92 150.57 L 369.92 140.57" fill="none" stroke="#d79b00" stroke-miterlimit="10" stroke-dasharray="1 1" pointer-events="stroke"/>
		<path d="M 360 260.57 L 360 284.2" fill="none" stroke="#82b366" stroke-miterlimit="10" pointer-events="stroke"/>
		<path d="M 360 289.45 L 356.5 282.45 L 360 284.2 L 363.5 282.45 Z" fill="#82b366" stroke="#82b366" stroke-miterlimit="10"/>
		<path d="M 369.92 270.57 L 369.92 260.57" fill="none" stroke="#d79b00" stroke-miterlimit="10" stroke-dasharray="1 1" pointer-events="stroke"/>
		<path d="M 359.52 210.57 L 359.52 234.2" fill="none" stroke="#d79b00" stroke-miterlimit="10" pointer-events="stroke"/>
		<path d="M 359.52 239.45 L 356.02 232.45 L 359.52 234.2 L 363.02 232.45 Z" fill="#d79b00" stroke="#d79b00" stroke-miterlimit="10"/>
		<path d="M 359.52 90.57 L 359.52 114.2" fill="none" stroke="#9673a6" stroke-miterlimit="10" pointer-events="stroke"/>
		<path d="M 359.52 119.45 L 356.02 112.45 L 359.52 114.2 L 363.02 112.45 Z" fill="#9673a6" stroke="#9673a6" stroke-miterlimit="10"/>
		<path d="M 129.88 390.57 L 129.88 380.57" fill="none" stroke="#d79b00" stroke-miterlimit="10" stroke-dasharray="1 1" pointer-events="stroke"/>
		<path d="M 140 360.57 L 163.63 360.57" fill="none" stroke="#d79b00" stroke-miterlimit="10" pointer-events="stroke"/>
		<path d="M 168.88 360.57 L 161.88 364.07 L 163.63 360.57 L 161.88 357.07 Z" fill="#d79b00" stroke="#d79b00" stroke-miterlimit="10"/>
		<path d="M 249.88 390.57 L 249.88 380.57" fill="none" stroke="#d79b00" stroke-miterlimit="10" stroke-dasharray="1 1" pointer-events="stroke"/>
		<path d="M 260 360.57 L 283.63 360.57" fill="none" stroke="#82b366" stroke-miterlimit="10" pointer-events="stroke"/>
		<path d="M 288.88 360.57 L 281.88 364.07 L 283.63 360.57 L 281.88 357.07 Z" fill="#82b366" stroke="#82b366" stroke-miterlimit="10"/>
		<path d="M 90 360.17 L 113.63 360.17" fill="none" stroke="#001dbc" stroke-miterlimit="10" pointer-events="stroke"/>
		<path d="M 118.88 360.17 L 111.88 363.67 L 113.63 360.17 L 111.88 356.67 Z" fill="#001dbc" stroke="#001dbc" stroke-miterlimit="10"/>
		<path d="M 210 360.57 L 233.63 360.57" fill="none" stroke="#d79b00" stroke-miterlimit="10" pointer-events="stroke"/>
		<path d="M 238.88 360.57 L 231.88 364.07 L 233.63 360.57 L 231.88 357.07 Z" fill="#d79b00" stroke="#d79b00" stroke-miterlimit="10"/>
		<path d="M 249.9 149.04 L 249.9 139.04" fill="none" stroke="#d79b00" stroke-miterlimit="10" stroke-dasharray="1 1" pointer-events="stroke"/>
		<path d="M 129.9 269.52 L 129.9 259.52" fill="none" stroke="#d79b00" stroke-miterlimit="10" stroke-dasharray="1 1" pointer-events="stroke"/>
		<path d="M 249.9 270.09 L 249.9 260.09" fill="none" stroke="#d79b00" stroke-miterlimit="10" stroke-dasharray="1 1" pointer-events="stroke"/>
		<path d="M 240 20.57 L 240 44.2" fill="none" stroke="#d79b00" stroke-miterlimit="10" pointer-events="stroke"/>
		<path d="M 240 49.45 L 236.5 42.45 L 240 44.2 L 243.5 42.45 Z" fill="#d79b00" stroke="#d79b00" stroke-miterlimit="10"/>
		<path d="M 260 20.57 L 260 44.2" fill="none" stroke="#9673a6" stroke-miterlimit="10" pointer-events="stroke"/>
		<path d="M 260 49.45 L 256.5 42.45 L 260 44.2 L 263.5 42.45 Z" fill="#9673a6" stroke="#9673a6" stroke-miterlimit="10"/>
		<path d="M 120 260.57 L 120 284.2" fill="none" stroke="#001dbc" stroke-miterlimit="10" pointer-events="stroke"/>
		<path d="M 120 289.45 L 116.5 282.45 L 120 284.2 L 123.5 282.45 Z" fill="#001dbc" stroke="#001dbc" stroke-miterlimit="10"/>
		<path d="M 140 260.57 L 140 284.2" fill="none" stroke="#d79b00" stroke-miterlimit="10" pointer-events="stroke"/>
		<path d="M 140 289.45 L 136.5 282.45 L 140 284.2 L 143.5 282.45 Z" fill="#d79b00" stroke="#d79b00" stroke-miterlimit="10"/>
		<path d="M 240 260 L 240 283.63" fill="none" stroke="#d79b00" stroke-miterlimit="10" pointer-events="stroke"/>
		<path d="M 240 288.88 L 236.5 281.88 L 240 283.63 L 243.5 281.88 Z" fill="#d79b00" stroke="#d79b00" stroke-miterlimit="10"/>
		<path d="M 260 260 L 260 283.63" fill="none" stroke="#82b366" stroke-miterlimit="10" pointer-events="stroke"/>
		<path d="M 260 288.88 L 256.5 281.88 L 260 283.63 L 263.5 281.88 Z" fill="#82b366" stroke="#82b366" stroke-miterlimit="10"/>
		<path d="M 239.67 330 L 239.67 353.63" fill="none" stroke="#d79b00" stroke-miterlimit="10" pointer-events="stroke"/>
		<path d="M 239.67 358.88 L 236.17 351.88 L 239.67 353.63 L 243.17 351.88 Z" fill="#d79b00" stroke="#d79b00" stroke-miterlimit="10"/>
		<path d="M 259.67 330 L 259.67 353.63" fill="none" stroke="#82b366" stroke-miterlimit="10" pointer-events="stroke"/>
		<path d="M 259.67 358.88 L 256.17 351.88 L 259.67 353.63 L 263.17 351.88 Z" fill="#82b366" stroke="#82b366" stroke-miterlimit="10"/>
		<path d="M 20 240.57 L 43.63 240.91" fill="none" stroke="#d79b00" stroke-miterlimit="10" pointer-events="stroke"/>
		<path d="M 48.88 240.98 L 41.83 244.38 L 43.63 240.91 L 41.93 237.38 Z" fill="#d79b00" stroke="#d79b00" stroke-miterlimit="10"/>
		<path d="M 20 261.05 L 43.63 261.05" fill="none" stroke="#001dbc" stroke-miterlimit="10" pointer-events="stroke"/>
		<path d="M 48.88 261.05 L 41.88 264.55 L 43.63 261.05 L 41.88 257.55 Z" fill="#001dbc" stroke="#001dbc" stroke-miterlimit="10"/>
		<path d="M 90 239.19 L 113.63 239.53" fill="none" stroke="#d79b00" stroke-miterlimit="10" pointer-events="stroke"/>
		<path d="M 118.88 239.6 L 111.83 243 L 113.63 239.53 L 111.93 236 Z" fill="#d79b00" stroke="#d79b00" stroke-miterlimit="10"/>
		<path d="M 90 259.67 L 113.63 259.67" fill="none" stroke="#001dbc" stroke-miterlimit="10" pointer-events="stroke"/>
		<path d="M 118.88 259.67 L 111.88 263.17 L 113.63 259.67 L 111.88 256.17 Z" fill="#001dbc" stroke="#001dbc" stroke-miterlimit="10"/>
		<path d="M 260 240.57 L 283.63 240.91" fill="none" stroke="#d79b00" stroke-miterlimit="10" pointer-events="stroke"/>
		<path d="M 288.88 240.98 L 281.83 244.38 L 283.63 240.91 L 281.93 237.38 Z" fill="#d79b00" stroke="#d79b00" stroke-miterlimit="10"/>
		<path d="M 260 261.05 L 283.63 261.05" fill="none" stroke="#82b366" stroke-miterlimit="10" pointer-events="stroke"/>
		<path d="M 288.88 261.05 L 281.88 264.55 L 283.63 261.05 L 281.88 257.55 Z" fill="#82b366" stroke="#82b366" stroke-miterlimit="10"/>
		<path d="M 330 240.57 L 353.63 240.91" fill="none" stroke="#d79b00" stroke-miterlimit="10" pointer-events="stroke"/>
		<path d="M 358.88 240.98 L 351.83 244.38 L 353.63 240.91 L 351.93 237.38 Z" fill="#d79b00" stroke="#d79b00" stroke-miterlimit="10"/>
		<path d="M 330 261.05 L 353.63 261.05" fill="none" stroke="#82b366" stroke-miterlimit="10" pointer-events="stroke"/>
		<path d="M 358.88 261.05 L 351.88 264.55 L 353.63 261.05 L 351.88 257.55 Z" fill="#82b366" stroke="#82b366" stroke-miterlimit="10"/>
		<path d="M 260 120.57 L 283.63 120.91" fill="none" stroke="#9673a6" stroke-miterlimit="10" pointer-events="stroke"/>
		<path d="M 288.88 120.98 L 281.83 124.38 L 283.63 120.91 L 281.93 117.38 Z" fill="#9673a6" stroke="#9673a6" stroke-miterlimit="10"/>
		<path d="M 260 141.05 L 283.63 141.05" fill="none" stroke="#d79b00" stroke-miterlimit="10" pointer-events="stroke"/>
		<path d="M 288.88 141.05 L 281.88 144.55 L 283.63 141.05 L 281.88 137.55 Z" fill="#d79b00" stroke="#d79b00" stroke-miterlimit="10"/>
		<path d="M 330 120.57 L 353.63 120.91" fill="none" stroke="#9673a6" stroke-miterlimit="10" pointer-events="stroke"/>
		<path d="M 358.88 120.98 L 351.83 124.38 L 353.63 120.91 L 351.93 117.38 Z" fill="#9673a6" stroke="#9673a6" stroke-miterlimit="10"/>
		<path d="M 330 141.05 L 353.63 141.05" fill="none" stroke="#d79b00" stroke-miterlimit="10" pointer-events="stroke"/>
		<path d="M 358.88 141.05 L 351.88 144.55 L 353.63 141.05 L 351.88 137.55 Z" fill="#d79b00" stroke="#d79b00" stroke-miterlimit="10"/>
		<path d="M 120 330 L 120 353.63" fill="none" stroke="#001dbc" stroke-miterlimit="10" pointer-events="stroke"/>
		<path d="M 120 358.88 L 116.5 351.88 L 120 353.63 L 123.5 351.88 Z" fill="#001dbc" stroke="#001dbc" stroke-miterlimit="10"/>
		<path d="M 140 330 L 140 353.63" fill="none" stroke="#d79b00" stroke-miterlimit="10" pointer-events="stroke"/>
		<path d="M 140 358.88 L 136.5 351.88 L 140 353.63 L 143.5 351.88 Z" fill="#d79b00" stroke="#d79b00" stroke-miterlimit="10"/>
		<path d="M 239.83 89.52 L 239.83 113.15" fill="none" stroke="#d79b00" stroke-miterlimit="10" pointer-events="stroke"/>
		<path d="M 239.83 118.4 L 236.33 111.4 L 239.83 113.15 L 243.33 111.4 Z" fill="#d79b00" stroke="#d79b00" stroke-miterlimit="10"/>
		<path d="M 259.83 89.52 L 259.83 113.15" fill="none" stroke="#9673a6" stroke-miterlimit="10" pointer-events="stroke"/>
		<path d="M 259.83 118.4 L 256.33 111.4 L 259.83 113.15 L 263.33 111.4 Z" fill="#9673a6" stroke="#9673a6" stroke-miterlimit="10"/>
		-->
	</g>
</svg>